<svg width="32" height="32" viewBox="0 0 32 32" fill="none" xmlns="http://www.w3.org/2000/svg">
  <rect width="32" height="32" rx="7" fill="#171717"/>
  <path d="M14.5 4.7c-3 1.9-6 3.8-6.4 4.1-.4.3-.6.5-.6.6 0 .2 2.7 4.3 4.5 6.3.3.4-.2.6 5.4-3.3 1.1-.7 2-1.4 2-1.4s2 1.7 3 2.9c2.9 4 2.7 3.8 4.9 6.3.9 1.2 1.8 2.4 2.1 2.8l.4.6 1.8-1.1c2.5-1.6 5.1-3.3 5.2-3.5s-.7-1.2-3-4.4c-.6-.9-2-2.7-2.8-3.9-.9-1.2-2.9-3.7-3.9-5.8-1.2-1.6-2.2-3.1-2.5-3.4-1.6-2.3-2.7-3.7-2.9-3.7-.1 0-3 2-5.8 3.8zM2.8 7.5c-1.9 1.3-3.5 2.4-3.5 2.5 0 .1 1.7 2.6 5.7 7.9 1.2 1.6 2.8 3.6 3.5 4.5s2 2.4 2.5 3.2c.5.7 1.7 2.3 2.4 3.3.9 1.3 2.2 2.5 2.3 2.5.1 0 1.7-1.1 3.7-2.5s5.3-3.5 7.4-5c2-1.4 3.9-2.6 3.9-2.7-.2-.3-2.6-3.5-5-6.3-.8-1.1-1.5-2-1.6-2.1-.1-.1-.7 0-2.1.6A525 525 0 0 1 8.9 19c-.3.1-.7-.2-1-.5-1-1.5-2.8-4.1-4.3-5.9-1.5-1.9-3.5-5.2-4.5-6.7-.2-.2-2.3 1.2-5.2 3.2z" fill="white"/>
</svg>
