<svg width="82" height="63" viewBox="0 0 82 63" fill="none" xmlns="http://www.w3.org/2000/svg">
<path d="M39.967 10.2667C33.467 14.8 27.6003 18.8667 26.9337 19.3333C26.2337 19.8 25.667 20.3667 25.667 20.6C25.667 20.9667 30.9337 28.8 34.067 33.1333C34.6003 33.8333 33.7337 34.3333 43.967 27.2333C46.0003 25.8333 47.8003 24.6667 47.967 24.6667C48.1337 24.6667 50.367 27.7 52.9337 31.4C58.4337 39.3 58.1337 38.9 62.1003 44.5C63.8003 46.9 65.5337 49.3667 66.0003 50.0667L66.8003 51.2667L70.0003 49.1C74.767 45.8 79.6337 42.3 79.8003 42.0333C79.967 41.8 78.667 39.8667 74.367 33.7667C73.167 32.0667 70.7337 28.6333 69.0003 26.1667C67.267 23.6667 63.967 18.9667 61.667 15.7C59.367 12.4333 57.367 9.53333 57.167 9.26667C54.167 4.8 52.2003 2 52.0003 2C51.867 2 46.467 5.7 39.967 10.2667Z" fill="white"/>
<path d="M7.76683 16.9667C4.2335 19.4667 1.3335 21.6 1.3335 21.7333C1.3335 22 4.4335 26.5 11.8335 37C13.9668 40.0333 16.7002 43.9333 17.9002 45.6667C19.1335 47.4 20.8002 49.8 21.6335 51C22.4668 52.2 24.5002 55.1 26.1335 57.4333C27.7668 59.7667 29.2335 61.6667 29.3668 61.6667C29.5335 61.6667 32.4668 59.7 35.9002 57.2667C39.3668 54.8667 45.1668 50.8 48.8335 48.2333C52.5002 45.7 55.6335 43.5 55.7668 43.3667C55.9002 43.2333 54.6668 41.2 53.0002 38.8667C51.3668 36.5333 49.3668 33.7 48.5668 32.5667C47.8002 31.4333 47.0668 30.4 46.9668 30.2333C46.7668 29.9333 45.5002 30.7333 37.4002 36.4333C35.2668 37.9333 33.4335 39 33.1668 38.8667C32.9002 38.7667 32.3335 38.1333 31.9002 37.4333C31.4668 36.7333 29.1668 33.4333 26.8002 30.0667C24.4335 26.7333 20.7668 21.5 18.6668 18.4667C16.5668 15.4333 14.7002 12.8333 14.5002 12.7C14.3335 12.5667 11.2668 14.5 7.76683 16.9667Z" fill="white"/>
</svg>
